<svg width="19" height="15" viewBox="0 0 19 15" fill="none" xmlns="http://www.w3.org/2000/svg">
<path d="M18.0375 12.95H0.4625C0.206969 12.95 0 13.157 0 13.4125V14.3375C0 14.5931 0.206969 14.8 0.4625 14.8H18.0375C18.293 14.8 18.5 14.5931 18.5 14.3375V13.4125C18.5 13.157 18.293 12.95 18.0375 12.95ZM1.29529 5.94488L3.86043 8.25738C4.07091 8.44743 4.3231 8.58536 4.59667 8.66005L12.9101 10.9248C13.6755 11.1333 14.4872 11.1769 15.2515 10.9642C16.1092 10.7251 16.5072 10.3511 16.6173 9.93192C16.728 9.51278 16.5673 8.9864 15.9418 8.34323C15.3845 7.77031 14.6598 7.3954 13.8944 7.18698L11.0757 6.41923L8.17469 0.873569C8.13104 0.705624 8.0027 0.57439 7.83764 0.529296L5.95613 0.0167882C5.65088 -0.0664618 5.35199 0.170569 5.35748 0.492007L6.74267 5.2387L3.78845 4.43395L2.99093 2.4718C2.93514 2.33044 2.8172 2.22407 2.67238 2.18476L1.52394 1.8717C1.22505 1.79019 0.930492 2.01623 0.925 2.33073L0.931648 5.27281C0.937141 5.53037 1.10595 5.77405 1.29529 5.94488Z" fill="white"/>
</svg>
