<svg width="18" height="14" viewBox="0 0 18 14" fill="none" xmlns="http://www.w3.org/2000/svg">
<path d="M17.5501 11.7002H0.45008C0.201455 11.7002 7.99496e-05 11.9016 7.99496e-05 12.1502V13.0502C7.99496e-05 13.2988 0.201455 13.5002 0.45008 13.5002H17.5501C17.7987 13.5002 18.0001 13.2988 18.0001 13.0502V12.1502C18.0001 11.9016 17.7987 11.7002 17.5501 11.7002ZM2.26555 8.69842C2.44217 8.89079 2.69024 8.99992 2.94983 8.99964L6.62127 8.99458C6.91101 8.99419 7.19659 8.92559 7.45489 8.79433L15.6381 4.64167C16.3902 4.26001 17.0644 3.71523 17.5231 3.0017C18.038 2.2007 18.094 1.62105 17.8907 1.21155C17.6879 0.801765 17.1949 0.500828 16.2524 0.439515C15.4129 0.384953 14.5778 0.606015 13.8258 0.98739L11.0552 2.39336L4.90424 0.0854215C4.83028 0.0356002 4.74436 0.00643774 4.65536 0.000949261C4.56635 -0.00453922 4.4775 0.0138455 4.39799 0.0542027L2.54877 0.992734C2.24867 1.14489 2.17611 1.54539 2.40336 1.79514L6.79705 4.5542L3.89427 6.02739L1.85942 5.00167C1.78932 4.96633 1.71188 4.94796 1.63337 4.94806C1.55486 4.94816 1.47747 4.96671 1.40745 5.00223L0.278799 5.57514C-0.0148263 5.7242 -0.09217 6.11289 0.122142 6.36489L2.26555 8.69842Z" fill="white"/>
</svg>
