<svg width="22" height="22" viewBox="0 0 22 22" fill="none" xmlns="http://www.w3.org/2000/svg">
<path d="M19.314 4.79409C17.8382 4.64742 16.3624 4.53742 14.8774 4.45492V4.44575L14.6757 3.25409C14.5382 2.41075 14.3365 1.14575 12.1915 1.14575H9.78986C7.65403 1.14575 7.45236 2.35575 7.30569 3.24492L7.11319 4.41825C6.26069 4.47325 5.40819 4.52825 4.55569 4.61075L2.68569 4.79409C2.30069 4.83075 2.02569 5.16992 2.06236 5.54575C2.09903 5.92159 2.42903 6.19658 2.81403 6.15992L4.68403 5.97658C9.48736 5.49992 14.3274 5.68325 19.1857 6.16909C19.2132 6.16909 19.2315 6.16909 19.259 6.16909C19.6074 6.16909 19.9099 5.90325 19.9465 5.54575C19.974 5.16992 19.699 4.83075 19.314 4.79409Z" fill="#FF0202"/>
<path opacity="0.3991" d="M17.6276 7.46175C17.4076 7.23258 17.1051 7.10425 16.7934 7.10425H5.20676C4.8951 7.10425 4.58343 7.23258 4.3726 7.46175C4.16176 7.69091 4.0426 8.00258 4.06093 8.32341L4.62926 17.7284C4.7301 19.1217 4.85843 20.8634 8.0576 20.8634H13.9426C17.1418 20.8634 17.2701 19.1309 17.3709 17.7284L17.9393 8.33258C17.9576 8.00258 17.8384 7.69091 17.6276 7.46175Z" fill="#FF0202"/>
<path fill-rule="evenodd" clip-rule="evenodd" d="M8.78174 15.5833C8.78174 15.2036 9.08954 14.8958 9.46924 14.8958H12.5217C12.9014 14.8958 13.2092 15.2036 13.2092 15.5833C13.2092 15.9629 12.9014 16.2708 12.5217 16.2708H9.46924C9.08954 16.2708 8.78174 15.9629 8.78174 15.5833Z" fill="#FF0202"/>
<path fill-rule="evenodd" clip-rule="evenodd" d="M8.021 11.9167C8.021 11.5371 8.3288 11.2292 8.7085 11.2292H13.2918C13.6715 11.2292 13.9793 11.5371 13.9793 11.9167C13.9793 12.2964 13.6715 12.6042 13.2918 12.6042H8.7085C8.3288 12.6042 8.021 12.2964 8.021 11.9167Z" fill="#FF0202"/>
</svg>
