<svg width="22" height="22" viewBox="0 0 22 22" fill="none" xmlns="http://www.w3.org/2000/svg">
<path d="M18.7918 10.3582V6.45326C18.7918 2.75909 17.9302 1.83325 14.4652 1.83325H7.53516C4.07016 1.83325 3.2085 2.75909 3.2085 6.45326V16.7749C3.2085 19.2132 4.54684 19.7908 6.16934 18.0491L6.17849 18.0399C6.93015 17.2424 8.07599 17.3066 8.72682 18.1774L9.65266 19.4149" stroke="#1AA3E4" stroke-width="1.5" stroke-linecap="round" stroke-linejoin="round"/>
<path opacity="0.4" d="M7.3335 6.41675H14.6668" stroke="#1AA3E4" stroke-width="1.5" stroke-linecap="round" stroke-linejoin="round"/>
<path opacity="0.4" d="M8.25 10.0833H13.75" stroke="#1AA3E4" stroke-width="1.5" stroke-linecap="round" stroke-linejoin="round"/>
<path d="M16.6923 13.5392L13.4473 16.7842C13.319 16.9125 13.1998 17.1508 13.1723 17.325L12.9981 18.5625C12.934 19.0117 13.2456 19.3234 13.6948 19.2592L14.9323 19.085C15.1065 19.0575 15.354 18.9383 15.4731 18.81L18.7181 15.565C19.2773 15.0059 19.5431 14.355 18.7181 13.53C17.9023 12.7142 17.2514 12.98 16.6923 13.5392Z" stroke="#1AA3E4" stroke-width="1.5" stroke-miterlimit="10" stroke-linecap="round" stroke-linejoin="round"/>
<path d="M16.2246 14.0066C16.4996 14.9966 17.2696 15.7666 18.2596 16.0416" stroke="#1AA3E4" stroke-width="1.5" stroke-miterlimit="10" stroke-linecap="round" stroke-linejoin="round"/>
</svg>
