<svg width="22" height="22" viewBox="0 0 22 22" fill="none" xmlns="http://www.w3.org/2000/svg">
<path fill-rule="evenodd" clip-rule="evenodd" d="M4.30383 10.5626V9.87507C4.30383 9.87507 4.3019 8.50401 4.82738 7.23659C4.82738 7.23659 5.35286 5.96917 6.32505 5.00102C6.32505 5.00102 7.29724 4.03286 8.56683 3.51266C8.56683 3.51266 9.83642 2.99245 11.2084 3.00008C11.2084 3.00008 12.6035 3.01065 13.8739 3.56798C13.8739 3.56798 15.0961 4.10419 16.0371 5.07069C16.0371 5.07069 16.9743 6.03342 17.4883 7.27483C17.4883 7.27483 18.0195 8.55759 18.0195 9.95242V10.5626C18.0195 10.5626 18.0195 14.1287 19.1386 16.0619C19.1386 16.0619 19.323 16.3811 19.3233 16.7489C19.3233 16.7489 19.3236 17.1166 19.1403 17.4355C19.1403 17.4355 18.9569 17.7543 18.6389 17.939C18.6389 17.939 18.3209 18.1238 17.9531 18.1251L4.37258 18.1251C4.37258 18.1251 4.00237 18.1238 3.68435 17.939C3.68435 17.939 3.36633 17.7543 3.18301 17.4355C3.18301 17.4355 2.99968 17.1166 3 16.7489C3 16.7489 3.00033 16.3811 3.18422 16.0626C3.18422 16.0626 4.30383 14.1287 4.30383 10.5626ZM5.67883 10.5626C5.67883 10.5626 5.67883 14.498 4.375 16.7501L17.9483 16.7501C17.9483 16.7501 16.6444 14.4974 16.6445 10.5626V9.95242C16.6445 9.95242 16.6445 7.66575 15.0518 6.02984C15.0518 6.02984 13.4575 4.39216 11.2008 4.37506C11.2008 4.37506 10.1035 4.36896 9.08816 4.78499C9.08816 4.78499 8.07281 5.20103 7.2953 5.97531C7.2953 5.97531 6.51779 6.74959 6.09754 7.76321C6.09754 7.76321 5.67728 8.77682 5.67883 9.87507V10.5626Z" fill="#1C1C1C"/>
<path d="M14.875 18.375V17.6875C14.875 17.3078 14.5672 17 14.1875 17C13.8078 17 13.5 17.3078 13.5 17.6875V18.375C13.5 19.2293 12.8959 19.8334 12.8959 19.8334C12.2918 20.4375 11.4375 20.4375 11.4375 20.4375C10.5832 20.4375 9.97909 19.8334 9.97909 19.8334C9.375 19.2293 9.375 18.375 9.375 18.375V17.6875C9.375 17.3078 9.0672 17 8.6875 17C8.3078 17 8 17.3078 8 17.6875L8 18.375C8 19.7989 9.00682 20.8057 9.00682 20.8057C10.0136 21.8125 11.4375 21.8125 11.4375 21.8125C12.8614 21.8125 13.8682 20.8057 13.8682 20.8057C14.875 19.7989 14.875 18.375 14.875 18.375Z" fill="#1C1C1C"/>
</svg>
