<svg width="80" height="80" viewBox="0 0 80 80" fill="none" xmlns="http://www.w3.org/2000/svg">
<path d="M80 61.1838H0V61.2238H80V61.1838Z" fill="#EBEBEB"/>
<path d="M13.6928 63.7583H8.39355V63.7983H13.6928V63.7583Z" fill="#EBEBEB"/>
<path d="M28.7727 64.1934H27.3823V64.2334H28.7727V64.1934Z" fill="#EBEBEB"/>
<path d="M17.9202 62.2734H13.853V62.3134H17.9202V62.2734Z" fill="#EBEBEB"/>
<path d="M71.984 62.5422H67.52V62.5822H71.984V62.5422Z" fill="#EBEBEB"/>
<path d="M66.0961 62.5422H62.6353V62.5822H66.0961V62.5422Z" fill="#EBEBEB"/>
<path d="M52.5855 63.2173H44.3535V63.2573H52.5855V63.2173Z" fill="#EBEBEB"/>
<path d="M37.9202 54.0478H7.02577C6.78375 54.0474 6.55178 53.9509 6.38079 53.7797C6.2098 53.6084 6.11377 53.3762 6.11377 53.1342V9.7054C6.11588 9.46477 6.21284 9.23468 6.3836 9.06512C6.55436 8.89556 6.78512 8.80022 7.02577 8.7998H37.9202C38.1625 8.7998 38.3949 8.89606 38.5662 9.06739C38.7375 9.23873 38.8338 9.4711 38.8338 9.7134V53.1342C38.8338 53.3765 38.7375 53.6089 38.5662 53.7802C38.3949 53.9516 38.1625 54.0478 37.9202 54.0478ZM7.02577 8.8318C6.79435 8.83223 6.57256 8.92446 6.40908 9.08824C6.24559 9.25203 6.15377 9.47399 6.15377 9.7054V53.1342C6.15377 53.3656 6.24559 53.5876 6.40908 53.7514C6.57256 53.9152 6.79435 54.0074 7.02577 54.0078H37.9202C38.1517 54.0074 38.3737 53.9152 38.5374 53.7515C38.7012 53.5877 38.7933 53.3658 38.7938 53.1342V9.7054C38.7933 9.47384 38.7012 9.25188 38.5374 9.08814C38.3737 8.9244 38.1517 8.83223 37.9202 8.8318H7.02577Z" fill="#EBEBEB"/>
<path d="M72.5298 54.0478H41.6338C41.3916 54.0474 41.1595 53.951 40.9883 53.7798C40.817 53.6085 40.7206 53.3764 40.7202 53.1342V9.7054C40.7227 9.46462 40.8201 9.23454 40.9911 9.06502C41.1621 8.8955 41.393 8.80021 41.6338 8.7998H72.5298C72.7702 8.80064 73.0005 8.89616 73.171 9.06568C73.3414 9.2352 73.4381 9.46505 73.4402 9.7054V53.1342C73.4402 53.3759 73.3444 53.6078 73.1738 53.7791C73.0031 53.9503 72.7716 54.047 72.5298 54.0478ZM41.6338 8.8318C41.4023 8.83223 41.1803 8.9244 41.0166 9.08814C40.8528 9.25188 40.7606 9.47384 40.7602 9.7054V53.1342C40.7606 53.3658 40.8528 53.5877 41.0166 53.7515C41.1803 53.9152 41.4023 54.0074 41.6338 54.0078H72.5298C72.7614 54.0074 72.9833 53.9152 73.1471 53.7515C73.3108 53.5877 73.403 53.3658 73.4034 53.1342V9.7054C73.403 9.47384 73.3108 9.25188 73.1471 9.08814C72.9833 8.9244 72.7614 8.83223 72.5298 8.8318H41.6338Z" fill="#EBEBEB"/>
<path d="M18.4815 39.52H13.3247V61.184H22.2207V43.2592L18.4815 39.52Z" fill="#E0E0E0"/>
<path d="M17.0642 43.2573H9.5874V61.1821H17.0642V43.2573Z" fill="#EBEBEB"/>
<path d="M17.0642 43.2573H9.5874V43.5517H17.0642V43.2573Z" fill="#E0E0E0"/>
<path d="M13.325 39.52L9.5874 43.2592H17.0626L13.325 39.52Z" fill="#EBEBEB"/>
<path d="M12.1953 45.5996H10.8369V46.958H12.1953V45.5996Z" fill="#E0E0E0"/>
<path d="M15.1792 45.5996H13.8208V46.958H15.1792V45.5996Z" fill="#E0E0E0"/>
<path d="M12.1953 49.4927H10.8369V50.8511H12.1953V49.4927Z" fill="#E0E0E0"/>
<path d="M15.1792 49.4927H13.8208V50.8511H15.1792V49.4927Z" fill="#E0E0E0"/>
<path d="M12.1953 53.3855H10.8369V54.7439H12.1953V53.3855Z" fill="#E0E0E0"/>
<path d="M15.1792 53.3855H13.8208V54.7439H15.1792V53.3855Z" fill="#E0E0E0"/>
<path d="M12.1953 57.2783H10.8369V58.6367H12.1953V57.2783Z" fill="#E0E0E0"/>
<path d="M15.1792 57.2783H13.8208V58.6367H15.1792V57.2783Z" fill="#E0E0E0"/>
<path d="M20.797 39.8096H19.5762V42.2512H20.797V39.8096Z" fill="#E0E0E0"/>
<path d="M47.4702 36.667H41.0942V61.1838H52.091V41.2894L47.4702 36.667Z" fill="#E0E0E0"/>
<path d="M45.7154 41.2896H36.4722V61.184H45.7154V41.2896Z" fill="#EBEBEB"/>
<path d="M45.7154 41.2896H36.4722V41.6544H45.7154V41.2896Z" fill="#E0E0E0"/>
<path d="M41.0946 36.667L36.4722 41.2894H45.7154L41.0946 36.667Z" fill="#EBEBEB"/>
<path d="M51.4176 44.2687L47.3872 44.2671V61.1839H56.04V48.8895L51.4176 44.2687Z" fill="#E0E0E0"/>
<path d="M47.3872 44.2671V48.8895V61.1839H52.0096V48.8895L47.3872 44.2671Z" fill="#EBEBEB"/>
<path d="M41.6465 45.3184H40.5425V47.6688H41.6465V45.3184Z" fill="#E0E0E0"/>
<path d="M44.083 45.3184H42.979V47.6688H44.083V45.3184Z" fill="#E0E0E0"/>
<path d="M41.6465 49.7886H40.5425V52.139H41.6465V49.7886Z" fill="#E0E0E0"/>
<path d="M44.083 49.7886H42.979V52.139H44.083V49.7886Z" fill="#E0E0E0"/>
<path d="M41.6465 54.2573H40.5425V56.6077H41.6465V54.2573Z" fill="#E0E0E0"/>
<path d="M39.208 45.3184H38.104V47.6688H39.208V45.3184Z" fill="#E0E0E0"/>
<path d="M39.208 49.7886H38.104V52.139H39.208V49.7886Z" fill="#E0E0E0"/>
<path d="M39.208 54.2573H38.104V56.6077H39.208V54.2573Z" fill="#E0E0E0"/>
<path d="M44.083 54.2573H42.979V56.6077H44.083V54.2573Z" fill="#E0E0E0"/>
<path d="M49.8081 49.7886H48.7041V52.139H49.8081V49.7886Z" fill="#E0E0E0"/>
<path d="M49.8081 54.2573H48.7041V56.6077H49.8081V54.2573Z" fill="#E0E0E0"/>
<path d="M29.9232 44.4844H24.1216V61.1836H34.1296V48.6908L29.9232 44.4844Z" fill="#E0E0E0"/>
<path d="M28.3262 48.6909H19.915V61.1837H28.3262V48.6909Z" fill="#EBEBEB"/>
<path d="M28.3262 48.6909H19.915V49.0221H28.3262V48.6909Z" fill="#E0E0E0"/>
<path d="M24.1214 44.4844L19.915 48.6908H28.3262L24.1214 44.4844Z" fill="#EBEBEB"/>
<path d="M22.8498 51.3262H21.3218V52.8542H22.8498V51.3262Z" fill="#E0E0E0"/>
<path d="M26.2082 51.3262H24.6802V52.8542H26.2082V51.3262Z" fill="#E0E0E0"/>
<path d="M22.8498 55.7053H21.3218V57.2333H22.8498V55.7053Z" fill="#E0E0E0"/>
<path d="M26.2082 55.7053H24.6802V57.2333H26.2082V55.7053Z" fill="#E0E0E0"/>
<path d="M25.0448 42.6367H23.1968V46.3327H25.0448V42.6367Z" fill="#EBEBEB"/>
<path d="M65.9839 47.9116H59.9087V61.1836H70.3871V51.254L65.9839 47.9116Z" fill="#E0E0E0"/>
<path d="M64.3137 51.2542H55.5073V61.1822H64.3137V51.2542Z" fill="#EBEBEB"/>
<path d="M64.3137 51.2542H55.5073V51.5181H64.3137V51.2542Z" fill="#E0E0E0"/>
<path d="M59.9089 47.9116L55.5073 51.254H64.3121L59.9089 47.9116Z" fill="#EBEBEB"/>
<path d="M57.6688 52.8701H56.8672V54.5933H57.6688V52.8701Z" fill="#E0E0E0"/>
<path d="M59.4305 52.8701H58.6289V54.5933H59.4305V52.8701Z" fill="#E0E0E0"/>
<path d="M57.6688 56.8831H56.8672V58.6063H57.6688V56.8831Z" fill="#E0E0E0"/>
<path d="M59.4305 56.8831H58.6289V58.6063H59.4305V56.8831Z" fill="#E0E0E0"/>
<path d="M61.1903 52.8701H60.3887V54.5933H61.1903V52.8701Z" fill="#E0E0E0"/>
<path d="M62.952 52.8701H62.1504V54.5933H62.952V52.8701Z" fill="#E0E0E0"/>
<path d="M61.1903 56.8831H60.3887V58.6063H61.1903V56.8831Z" fill="#E0E0E0"/>
<path d="M62.952 56.8831H62.1504V58.6063H62.952V56.8831Z" fill="#E0E0E0"/>
<path d="M66.9793 46.4429H65.0449V49.3805H66.9793V46.4429Z" fill="#E0E0E0"/>
<path d="M32.2073 18.6195C32.8509 14.6543 30.1583 10.9181 26.1931 10.2744C22.2279 9.63078 18.4917 12.3234 17.848 16.2886C17.2044 20.2538 19.897 23.99 23.8622 24.6337C27.8274 25.2773 31.5636 22.5847 32.2073 18.6195Z" fill="#FAFAFA"/>
<path d="M54.5054 24.0206C55.5934 22.3518 57.3854 21.1646 59.0382 21.1646C60.0734 21.1646 60.8622 21.6318 61.3086 22.3934C61.8585 21.9692 62.5267 21.7266 63.2206 21.699C64.3406 21.699 65.0494 22.499 65.0686 23.6366C65.6116 23.3846 66.1974 23.238 66.795 23.2046C67.9278 23.1534 68.7438 23.6157 69.0846 24.3661C69.3085 24.2403 69.5579 24.1665 69.8142 24.1502C70.4654 24.1214 70.8142 24.587 70.5934 25.1902C70.579 25.2286 70.563 25.2654 70.5486 25.3022H52.3198C52.3614 24.7102 53.6958 24.051 54.5054 24.0206Z" fill="#FAFAFA"/>
<path d="M52.8241 14.7712C53.3297 13.9984 54.1617 13.4464 54.9281 13.4464C55.1387 13.4373 55.3478 13.4855 55.5331 13.5858C55.7185 13.6861 55.8733 13.8348 55.9809 14.016C56.2368 13.8203 56.547 13.7085 56.8689 13.696C57.3905 13.696 57.7169 14.0688 57.7265 14.5952C57.9782 14.4787 58.2496 14.4108 58.5265 14.3952C59.0513 14.3712 59.4305 14.5856 59.5889 14.9328C59.6927 14.8751 59.808 14.8412 59.9265 14.8336C59.9879 14.8223 60.0511 14.8283 60.1093 14.851C60.1674 14.8737 60.2181 14.9121 60.2556 14.9619C60.2931 15.0117 60.316 15.071 60.3218 15.1331C60.3275 15.1952 60.3159 15.2577 60.2881 15.3136C60.2881 15.3312 60.2753 15.3488 60.2673 15.3664H51.8081C51.8305 15.0912 52.4497 14.7856 52.8241 14.7712Z" fill="#FAFAFA"/>
<path d="M27.4862 17.6111C28.707 15.7391 30.7182 14.4111 32.571 14.4111C33.7326 14.4111 34.6174 14.9359 35.1166 15.7903C35.7902 15.3103 36.5454 15.0111 37.2638 15.0111C38.5262 15.0111 39.315 15.9119 39.3358 17.1855C39.9456 16.9049 40.603 16.742 41.2734 16.7055C42.5422 16.6479 43.459 17.1663 43.8414 18.0095C44.0924 17.8685 44.3717 17.7854 44.659 17.7663C45.3902 17.7343 45.779 18.2575 45.5342 18.9343C45.5182 18.9759 45.5006 19.0175 45.483 19.0591H25.0254C25.0814 18.3839 26.5774 17.6447 27.4862 17.6111Z" fill="#F0F0F0"/>
<path d="M12.1602 26.5086C12.2064 26.5028 12.2529 26.5002 12.2994 26.5006C12.8066 25.9822 13.3906 25.651 13.8994 25.651C14.059 25.6432 14.2174 25.6833 14.354 25.7663C14.4906 25.8493 14.5992 25.9713 14.6658 26.1166C15.5986 25.1118 16.7042 24.459 17.6418 24.459C18.3986 24.459 18.9074 24.883 19.1218 25.579C19.621 25.1854 20.1506 24.9486 20.6178 24.9486C21.4418 24.9486 21.8386 25.6782 21.6882 26.7086C22.0978 26.487 22.5489 26.353 23.013 26.315C23.8466 26.2686 24.3762 26.6878 24.5154 27.371C24.6842 27.2602 24.8776 27.1926 25.0786 27.1742C25.5346 27.1502 25.7266 27.5262 25.5362 28.0318H9.87061C10.3106 27.2638 11.3106 26.595 12.1602 26.5086Z" fill="#F5F5F5"/>
<path d="M39.9999 68.4095C57.1331 68.4095 71.0223 67.5986 71.0223 66.5983C71.0223 65.598 57.1331 64.7871 39.9999 64.7871C22.8667 64.7871 8.97754 65.598 8.97754 66.5983C8.97754 67.5986 22.8667 68.4095 39.9999 68.4095Z" fill="#F5F5F5"/>
<path d="M13.0063 66.5981H17.9247L17.2015 52.0349H13.7295L13.0063 66.5981Z" fill="#2696CA"/>
<path opacity="0.1" d="M13.0063 66.5981H17.9247L17.2015 52.0349H13.7295L13.0063 66.5981Z" fill="black"/>
<path d="M15.1233 59.6701L16.0369 58.7565L10.4065 53.3965L9.76172 54.0397L15.1233 59.6701Z" fill="#2696CA"/>
<path opacity="0.1" d="M15.1233 59.6701L16.0369 58.7565L10.4065 53.3965L9.76172 54.0397L15.1233 59.6701Z" fill="black"/>
<path d="M20.6114 53.3948C23.1979 53.3948 25.2946 51.4907 25.2946 49.142C25.2946 46.7932 23.1979 44.8892 20.6114 44.8892C18.025 44.8892 15.9282 46.7932 15.9282 49.142C15.9282 51.4907 18.025 53.3948 20.6114 53.3948Z" fill="#2696CA"/>
<path d="M16.5186 47.9039C18.5174 47.9039 20.1378 46.4325 20.1378 44.6175C20.1378 42.8024 18.5174 41.3311 16.5186 41.3311C14.5198 41.3311 12.8994 42.8024 12.8994 44.6175C12.8994 46.4325 14.5198 47.9039 16.5186 47.9039Z" fill="#2696CA"/>
<path d="M14.8594 51.7823C16.8583 51.7823 18.4786 50.3109 18.4786 48.4959C18.4786 46.6808 16.8583 45.2095 14.8594 45.2095C12.8606 45.2095 11.2402 46.6808 11.2402 48.4959C11.2402 50.3109 12.8606 51.7823 14.8594 51.7823Z" fill="#2696CA"/>
<path d="M11.8463 48.7198C13.8451 48.7198 15.4655 47.2484 15.4655 45.4334C15.4655 43.6183 13.8451 42.147 11.8463 42.147C9.84742 42.147 8.22705 43.6183 8.22705 45.4334C8.22705 47.2484 9.84742 48.7198 11.8463 48.7198Z" fill="#2696CA"/>
<path d="M10.3184 53.2461C12.3172 53.2461 13.9376 51.7748 13.9376 49.9597C13.9376 48.1447 12.3172 46.6733 10.3184 46.6733C8.31959 46.6733 6.69922 48.1447 6.69922 49.9597C6.69922 51.7748 8.31959 53.2461 10.3184 53.2461Z" fill="#2696CA"/>
<path d="M11.7139 55.7149C13.7128 55.7149 15.3331 54.2435 15.3331 52.4285C15.3331 50.6135 13.7128 49.1421 11.7139 49.1421C9.7151 49.1421 8.09473 50.6135 8.09473 52.4285C8.09473 54.2435 9.7151 55.7149 11.7139 55.7149Z" fill="#2696CA"/>
<path d="M15.4654 55.096C18.218 55.096 20.4494 53.0702 20.4494 50.5712C20.4494 48.0722 18.218 46.0464 15.4654 46.0464C12.7129 46.0464 10.4814 48.0722 10.4814 50.5712C10.4814 53.0702 12.7129 55.096 15.4654 55.096Z" fill="#2696CA"/>
<path d="M18.0641 56.7293C20.8167 56.7293 23.0481 54.7035 23.0481 52.2045C23.0481 49.7055 20.8167 47.6797 18.0641 47.6797C15.3115 47.6797 13.0801 49.7055 13.0801 52.2045C13.0801 54.7035 15.3115 56.7293 18.0641 56.7293Z" fill="#2696CA"/>
<path d="M7.48328 49.3916C8.85207 49.3916 9.96168 48.3837 9.96168 47.1404C9.96168 45.8971 8.85207 44.8892 7.48328 44.8892C6.1145 44.8892 5.00488 45.8971 5.00488 47.1404C5.00488 48.3837 6.1145 49.3916 7.48328 49.3916Z" fill="#2696CA"/>
<path d="M8.93152 47.9038C10.3003 47.9038 11.4099 46.8959 11.4099 45.6526C11.4099 44.4093 10.3003 43.4014 8.93152 43.4014C7.56274 43.4014 6.45312 44.4093 6.45312 45.6526C6.45312 46.8959 7.56274 47.9038 8.93152 47.9038Z" fill="#2696CA"/>
<path d="M21.0385 46.2944C22.4072 46.2944 23.5169 45.2865 23.5169 44.0432C23.5169 42.7999 22.4072 41.792 21.0385 41.792C19.6697 41.792 18.5601 42.7999 18.5601 44.0432C18.5601 45.2865 19.6697 46.2944 21.0385 46.2944Z" fill="#2696CA"/>
<g opacity="0.3">
<path d="M20.6114 53.3952C23.1979 53.3952 25.2946 51.4912 25.2946 49.1425C25.2946 46.7937 23.1979 44.8896 20.6114 44.8896C18.025 44.8896 15.9282 46.7937 15.9282 49.1425C15.9282 51.4912 18.025 53.3952 20.6114 53.3952Z" fill="white"/>
<path d="M16.5186 47.9039C18.5174 47.9039 20.1378 46.4325 20.1378 44.6175C20.1378 42.8024 18.5174 41.3311 16.5186 41.3311C14.5198 41.3311 12.8994 42.8024 12.8994 44.6175C12.8994 46.4325 14.5198 47.9039 16.5186 47.9039Z" fill="white"/>
<path d="M14.8594 51.7823C16.8583 51.7823 18.4786 50.3109 18.4786 48.4959C18.4786 46.6808 16.8583 45.2095 14.8594 45.2095C12.8606 45.2095 11.2402 46.6808 11.2402 48.4959C11.2402 50.3109 12.8606 51.7823 14.8594 51.7823Z" fill="white"/>
<path d="M11.8463 48.7198C13.8451 48.7198 15.4655 47.2484 15.4655 45.4334C15.4655 43.6183 13.8451 42.147 11.8463 42.147C9.84742 42.147 8.22705 43.6183 8.22705 45.4334C8.22705 47.2484 9.84742 48.7198 11.8463 48.7198Z" fill="white"/>
<path d="M10.3184 53.2461C12.3172 53.2461 13.9376 51.7748 13.9376 49.9597C13.9376 48.1447 12.3172 46.6733 10.3184 46.6733C8.31959 46.6733 6.69922 48.1447 6.69922 49.9597C6.69922 51.7748 8.31959 53.2461 10.3184 53.2461Z" fill="white"/>
<path d="M11.7139 55.7151C13.7128 55.7151 15.3331 54.2438 15.3331 52.4287C15.3331 50.6137 13.7128 49.1423 11.7139 49.1423C9.7151 49.1423 8.09473 50.6137 8.09473 52.4287C8.09473 54.2438 9.7151 55.7151 11.7139 55.7151Z" fill="white"/>
<path d="M15.4654 55.096C18.218 55.096 20.4494 53.0702 20.4494 50.5712C20.4494 48.0722 18.218 46.0464 15.4654 46.0464C12.7129 46.0464 10.4814 48.0722 10.4814 50.5712C10.4814 53.0702 12.7129 55.096 15.4654 55.096Z" fill="white"/>
<path d="M18.0641 56.7293C20.8167 56.7293 23.0481 54.7035 23.0481 52.2045C23.0481 49.7055 20.8167 47.6797 18.0641 47.6797C15.3115 47.6797 13.0801 49.7055 13.0801 52.2045C13.0801 54.7035 15.3115 56.7293 18.0641 56.7293Z" fill="white"/>
<path d="M7.48328 49.3921C8.85207 49.3921 9.96168 48.3842 9.96168 47.1408C9.96168 45.8975 8.85207 44.8896 7.48328 44.8896C6.1145 44.8896 5.00488 45.8975 5.00488 47.1408C5.00488 48.3842 6.1145 49.3921 7.48328 49.3921Z" fill="white"/>
<path d="M8.93152 47.9038C10.3003 47.9038 11.4099 46.8959 11.4099 45.6526C11.4099 44.4093 10.3003 43.4014 8.93152 43.4014C7.56274 43.4014 6.45312 44.4093 6.45312 45.6526C6.45312 46.8959 7.56274 47.9038 8.93152 47.9038Z" fill="white"/>
<path d="M21.0385 46.2944C22.4072 46.2944 23.5169 45.2865 23.5169 44.0432C23.5169 42.7999 22.4072 41.792 21.0385 41.792C19.6697 41.792 18.5601 42.7999 18.5601 44.0432C18.5601 45.2865 19.6697 46.2944 21.0385 46.2944Z" fill="white"/>
</g>
<path d="M44.9264 64.9358C44.9265 65.5136 44.79 66.0832 44.528 66.5982H36.5008C36.2399 66.0829 36.104 65.5134 36.104 64.9358C36.1043 64.5877 36.1533 64.2414 36.2496 63.907L36.2992 63.747C36.4938 63.1863 36.812 62.6767 37.2304 62.2558C37.296 62.1918 37.3632 62.1278 37.4336 62.067C37.8628 61.6848 38.363 61.3907 38.9056 61.2014C39.2761 61.0677 39.6622 60.9822 40.0544 60.947C40.2075 60.9315 40.3613 60.924 40.5152 60.9246C41.2858 60.9219 42.0455 61.1075 42.728 61.4654C44.0432 62.163 44.9264 63.4558 44.9264 64.9358Z" fill="#2696CA"/>
<path d="M36.6609 63.7694C38.5431 63.7694 40.0689 62.3833 40.0689 60.6734C40.0689 58.9635 38.5431 57.5774 36.6609 57.5774C34.7787 57.5774 33.2529 58.9635 33.2529 60.6734C33.2529 62.3833 34.7787 63.7694 36.6609 63.7694Z" fill="#2696CA"/>
<path d="M38.5059 64.3198C38.5018 64.7556 38.4017 65.185 38.2129 65.5777C38.024 65.9704 37.7509 66.3166 37.4131 66.5918H32.7827C32.2735 66.1735 31.9146 65.6005 31.7603 64.9598C31.7259 64.8089 31.7045 64.6552 31.6963 64.5006C31.6963 64.4462 31.6963 64.3886 31.6963 64.3406C31.6988 63.8156 31.8442 63.3012 32.1171 62.8526C32.4325 62.3369 32.8859 61.9196 33.4259 61.6478C34.1169 61.2978 34.9001 61.1725 35.6659 61.2894C36.3194 61.3826 36.9339 61.6563 37.4403 62.0798C37.5961 62.2124 37.7386 62.3598 37.8659 62.5198C38.0726 62.7764 38.2348 63.0657 38.3459 63.3758C38.3699 63.4414 38.3907 63.507 38.4083 63.5742C38.4744 63.8172 38.5072 64.068 38.5059 64.3198Z" fill="#2696CA"/>
<path d="M32.261 64.5389C34.1432 64.5389 35.669 63.1528 35.669 61.4429C35.669 59.733 34.1432 58.3469 32.261 58.3469C30.3788 58.3469 28.853 59.733 28.853 61.4429C28.853 63.1528 30.3788 64.5389 32.261 64.5389Z" fill="#2696CA"/>
<path d="M34.24 65.7037C34.2399 66.0077 34.1907 66.3097 34.0944 66.5981H27.5664C27.4705 66.3097 27.4219 66.0076 27.4224 65.7037C27.4223 65.4938 27.4454 65.2845 27.4912 65.0797C27.6335 64.4756 27.9574 63.9295 28.4192 63.5149C28.6754 63.2818 28.9657 63.0892 29.28 62.9437C29.6461 62.773 30.0382 62.6649 30.44 62.6237C30.5648 62.6125 30.6928 62.6045 30.8224 62.6045C31.0674 62.6044 31.3119 62.6291 31.552 62.6781C31.7418 62.7155 31.928 62.7691 32.1088 62.8381C32.8073 63.0952 33.4021 63.5748 33.8016 64.2029C34.0346 64.5795 34.177 65.0051 34.2176 65.4461C34.2176 65.4925 34.2176 65.5405 34.2272 65.5885C34.2368 65.6365 34.24 65.6653 34.24 65.7037Z" fill="#2696CA"/>
<path d="M35.1569 66.5982H29.1201C29.5752 65.8343 30.3145 65.2819 31.1761 65.0622C31.3692 65.0108 31.5661 64.9749 31.7649 64.955C32.6078 64.8677 33.4552 65.0727 34.1649 65.5358C34.1905 65.5534 34.2145 65.5694 34.2385 65.5886C34.6146 65.8541 34.9281 66.1986 35.1569 66.5982Z" fill="#2696CA"/>
<path d="M40.3617 66.2813C40.3617 66.3885 40.3617 66.4941 40.3489 66.6013H30.9889C30.9809 66.4973 30.9761 66.3917 30.9761 66.2813C30.9759 65.6418 31.133 65.0121 31.4337 64.4477C31.515 64.2899 31.6075 64.138 31.7105 63.9933C31.9578 63.6404 32.2566 63.3266 32.5969 63.0621C32.9649 62.7724 33.3735 62.5384 33.8097 62.3677C34.3834 62.1429 34.9935 62.0252 35.6097 62.0205H35.6705C36.1998 62.0201 36.726 62.1016 37.2305 62.2621C37.7947 62.4432 38.3212 62.7257 38.7841 63.0957C39.0186 63.2868 39.233 63.5012 39.4241 63.7357C40.0236 64.4491 40.3552 65.3495 40.3617 66.2813Z" fill="#2696CA"/>
<path d="M42.6147 66.5982H33.6211C33.7448 66.2192 33.925 65.8611 34.1555 65.5358C34.1747 65.507 34.1971 65.475 34.2195 65.4462C34.7394 64.7537 35.4427 64.2205 36.2499 63.907C36.3822 63.8558 36.5182 63.8094 36.6579 63.7678C37.056 63.6499 37.4671 63.5812 37.8819 63.563H38.1171C38.2131 63.563 38.3091 63.563 38.4019 63.571C38.7484 63.5885 39.0921 63.6421 39.4275 63.731C40.9603 64.1278 42.1603 65.2158 42.6147 66.5982Z" fill="#2696CA"/>
<path d="M28.1523 65.1694C29.4415 65.1694 30.4867 64.2203 30.4867 63.0494C30.4867 61.8786 29.4415 60.9294 28.1523 60.9294C26.863 60.9294 25.8179 61.8786 25.8179 63.0494C25.8179 64.2203 26.863 65.1694 28.1523 65.1694Z" fill="#2696CA"/>
<path d="M29.5151 63.7693C30.8043 63.7693 31.8495 62.8201 31.8495 61.6493C31.8495 60.4785 30.8043 59.5293 29.5151 59.5293C28.2258 59.5293 27.1807 60.4785 27.1807 61.6493C27.1807 62.8201 28.2258 63.7693 29.5151 63.7693Z" fill="#2696CA"/>
<path d="M40.9184 62.2527C42.2076 62.2527 43.2528 61.3035 43.2528 60.1327C43.2528 58.9619 42.2076 58.0127 40.9184 58.0127C39.6291 58.0127 38.584 58.9619 38.584 60.1327C38.584 61.3035 39.6291 62.2527 40.9184 62.2527Z" fill="#2696CA"/>
<g opacity="0.3">
<path d="M44.9269 64.9358C44.927 65.5136 44.7905 66.0832 44.5285 66.5982H36.5013C36.2404 66.0829 36.1045 65.5134 36.1045 64.9358C36.1047 64.5877 36.1538 64.2414 36.2501 63.907L36.2997 63.747C36.4942 63.1863 36.8125 62.6767 37.2309 62.2558C37.2965 62.1918 37.3637 62.1278 37.4341 62.067C37.8633 61.6848 38.3635 61.3907 38.9061 61.2014C39.2765 61.0677 39.6626 60.9822 40.0549 60.947C40.208 60.9315 40.3618 60.924 40.5157 60.9246C41.2863 60.9219 42.046 61.1075 42.7285 61.4654C44.0437 62.163 44.9269 63.4558 44.9269 64.9358Z" fill="white"/>
<path d="M36.6609 63.7694C38.5431 63.7694 40.0689 62.3833 40.0689 60.6734C40.0689 58.9635 38.5431 57.5774 36.6609 57.5774C34.7787 57.5774 33.2529 58.9635 33.2529 60.6734C33.2529 62.3833 34.7787 63.7694 36.6609 63.7694Z" fill="white"/>
<path d="M38.5059 64.3198C38.5018 64.7556 38.4017 65.185 38.2129 65.5777C38.024 65.9704 37.7509 66.3166 37.4131 66.5918H32.7827C32.2735 66.1735 31.9146 65.6005 31.7603 64.9598C31.7259 64.8089 31.7045 64.6552 31.6963 64.5006C31.6963 64.4462 31.6963 64.3886 31.6963 64.3406C31.6988 63.8156 31.8442 63.3012 32.1171 62.8526C32.4325 62.3369 32.8859 61.9196 33.4259 61.6478C34.1169 61.2978 34.9001 61.1725 35.6659 61.2894C36.3194 61.3826 36.9339 61.6563 37.4403 62.0798C37.5961 62.2124 37.7386 62.3598 37.8659 62.5198C38.0726 62.7764 38.2348 63.0657 38.3459 63.3758C38.3699 63.4414 38.3907 63.507 38.4083 63.5742C38.4744 63.8172 38.5072 64.068 38.5059 64.3198Z" fill="white"/>
<path d="M32.261 64.5389C34.1432 64.5389 35.669 63.1528 35.669 61.4429C35.669 59.733 34.1432 58.3469 32.261 58.3469C30.3788 58.3469 28.853 59.733 28.853 61.4429C28.853 63.1528 30.3788 64.5389 32.261 64.5389Z" fill="white"/>
<path d="M34.2405 65.7037C34.2404 66.0077 34.1912 66.3097 34.0949 66.5981H27.5669C27.471 66.3097 27.4224 66.0076 27.4229 65.7037C27.4228 65.4938 27.4459 65.2845 27.4917 65.0797C27.634 64.4756 27.9578 63.9295 28.4197 63.5149C28.6759 63.2818 28.9661 63.0892 29.2805 62.9437C29.6466 62.773 30.0386 62.6649 30.4405 62.6237C30.5653 62.6125 30.6933 62.6045 30.8229 62.6045C31.0679 62.6044 31.3124 62.6291 31.5525 62.6781C31.7423 62.7155 31.9285 62.7691 32.1093 62.8381C32.8078 63.0952 33.4026 63.5748 33.8021 64.2029C34.0351 64.5795 34.1775 65.0051 34.2181 65.4461C34.2181 65.4925 34.2181 65.5405 34.2277 65.5885C34.2373 65.6365 34.2405 65.6653 34.2405 65.7037Z" fill="white"/>
<path d="M35.1569 66.5982H29.1201C29.5752 65.8343 30.3145 65.2819 31.1761 65.0622C31.3692 65.0108 31.5661 64.9749 31.7649 64.955C32.6078 64.8677 33.4552 65.0727 34.1649 65.5358C34.1905 65.5534 34.2145 65.5694 34.2385 65.5886C34.6146 65.8541 34.9281 66.1986 35.1569 66.5982Z" fill="white"/>
<path d="M40.3617 66.2813C40.3617 66.3885 40.3617 66.4941 40.3489 66.6013H30.9889C30.9809 66.4973 30.9761 66.3917 30.9761 66.2813C30.9759 65.6418 31.133 65.0121 31.4337 64.4477C31.515 64.2899 31.6075 64.138 31.7105 63.9933C31.9578 63.6404 32.2566 63.3266 32.5969 63.0621C32.9649 62.7724 33.3735 62.5384 33.8097 62.3677C34.3834 62.1429 34.9935 62.0252 35.6097 62.0205H35.6705C36.1998 62.0201 36.726 62.1016 37.2305 62.2621C37.7947 62.4432 38.3212 62.7257 38.7841 63.0957C39.0186 63.2868 39.233 63.5012 39.4241 63.7357C40.0236 64.4491 40.3552 65.3495 40.3617 66.2813Z" fill="white"/>
<path d="M42.6147 66.5982H33.6211C33.7448 66.2192 33.925 65.8611 34.1555 65.5358C34.1747 65.507 34.1971 65.475 34.2195 65.4462C34.7394 64.7537 35.4427 64.2205 36.2499 63.907C36.3822 63.8558 36.5182 63.8094 36.6579 63.7678C37.056 63.6499 37.4671 63.5812 37.8819 63.563H38.1171C38.2131 63.563 38.3091 63.563 38.4019 63.571C38.7484 63.5885 39.0921 63.6421 39.4275 63.731C40.9603 64.1278 42.1603 65.2158 42.6147 66.5982Z" fill="white"/>
<path d="M28.1523 65.1694C29.4415 65.1694 30.4867 64.2203 30.4867 63.0494C30.4867 61.8786 29.4415 60.9294 28.1523 60.9294C26.863 60.9294 25.8179 61.8786 25.8179 63.0494C25.8179 64.2203 26.863 65.1694 28.1523 65.1694Z" fill="white"/>
<path d="M29.5156 63.7693C30.8048 63.7693 31.85 62.8201 31.85 61.6493C31.85 60.4785 30.8048 59.5293 29.5156 59.5293C28.2263 59.5293 27.1812 60.4785 27.1812 61.6493C27.1812 62.8201 28.2263 63.7693 29.5156 63.7693Z" fill="white"/>
<path d="M40.9189 62.2527C42.2081 62.2527 43.2533 61.3035 43.2533 60.1327C43.2533 58.9619 42.2081 58.0127 40.9189 58.0127C39.6296 58.0127 38.5845 58.9619 38.5845 60.1327C38.5845 61.3035 39.6296 62.2527 40.9189 62.2527Z" fill="white"/>
</g>
<path d="M55.3408 66.5984H62.032L61.048 46.792H56.3248L55.3408 66.5984Z" fill="#2696CA"/>
<path opacity="0.1" d="M55.3408 66.5984H62.032L61.048 46.792H56.3248L55.3408 66.5984Z" fill="black"/>
<path d="M58.2209 57.1759L59.4641 55.9343L51.8081 48.6431L50.9297 49.5199L58.2209 57.1759Z" fill="#2696CA"/>
<path opacity="0.1" d="M58.2209 57.1759L59.4641 55.9343L51.8081 48.6431L50.9297 49.5199L58.2209 57.1759Z" fill="black"/>
<path d="M65.685 48.6432C69.2029 48.6432 72.0546 46.0536 72.0546 42.8592C72.0546 39.6648 69.2029 37.0752 65.685 37.0752C62.1672 37.0752 59.3154 39.6648 59.3154 42.8592C59.3154 46.0536 62.1672 48.6432 65.685 48.6432Z" fill="#2696CA"/>
<path d="M60.1184 41.1742C62.8365 41.1742 65.04 39.1727 65.04 36.7038C65.04 34.2349 62.8365 32.2334 60.1184 32.2334C57.4002 32.2334 55.1968 34.2349 55.1968 36.7038C55.1968 39.1727 57.4002 41.1742 60.1184 41.1742Z" fill="#2696CA"/>
<path d="M57.8625 46.4496C60.5806 46.4496 62.7841 44.4481 62.7841 41.9792C62.7841 39.5103 60.5806 37.5088 57.8625 37.5088C55.1444 37.5088 52.9409 39.5103 52.9409 41.9792C52.9409 44.4481 55.1444 46.4496 57.8625 46.4496Z" fill="#2696CA"/>
<path d="M53.7649 42.286C56.483 42.286 58.6865 40.2845 58.6865 37.8156C58.6865 35.3467 56.483 33.3452 53.7649 33.3452C51.0467 33.3452 48.8433 35.3467 48.8433 37.8156C48.8433 40.2845 51.0467 42.286 53.7649 42.286Z" fill="#2696CA"/>
<path d="M51.6862 48.4398C54.4044 48.4398 56.6078 46.4384 56.6078 43.9694C56.6078 41.5005 54.4044 39.499 51.6862 39.499C48.9681 39.499 46.7646 41.5005 46.7646 43.9694C46.7646 46.4384 48.9681 48.4398 51.6862 48.4398Z" fill="#2696CA"/>
<path d="M53.5842 51.7997C56.3023 51.7997 58.5058 49.7982 58.5058 47.3293C58.5058 44.8604 56.3023 42.8589 53.5842 42.8589C50.8661 42.8589 48.6626 44.8604 48.6626 47.3293C48.6626 49.7982 50.8661 51.7997 53.5842 51.7997Z" fill="#2696CA"/>
<path d="M58.6863 50.9583C62.4295 50.9583 65.4639 48.2026 65.4639 44.8031C65.4639 41.4037 62.4295 38.6479 58.6863 38.6479C54.9431 38.6479 51.9087 41.4037 51.9087 44.8031C51.9087 48.2026 54.9431 50.9583 58.6863 50.9583Z" fill="#2696CA"/>
<path d="M62.221 53.1791C65.9641 53.1791 68.9986 50.4233 68.9986 47.0239C68.9986 43.6244 65.9641 40.8687 62.221 40.8687C58.4778 40.8687 55.4434 43.6244 55.4434 47.0239C55.4434 50.4233 58.4778 53.1791 62.221 53.1791Z" fill="#2696CA"/>
<path d="M47.8321 43.1968C49.694 43.1968 51.2033 41.8264 51.2033 40.136C51.2033 38.4456 49.694 37.0752 47.8321 37.0752C45.9703 37.0752 44.4609 38.4456 44.4609 40.136C44.4609 41.8264 45.9703 43.1968 47.8321 43.1968Z" fill="#2696CA"/>
<path d="M49.7999 41.1743C51.6618 41.1743 53.1711 39.804 53.1711 38.1135C53.1711 36.4231 51.6618 35.0527 49.7999 35.0527C47.938 35.0527 46.4287 36.4231 46.4287 38.1135C46.4287 39.804 47.938 41.1743 49.7999 41.1743Z" fill="#2696CA"/>
<path d="M66.2657 38.9854C68.1276 38.9854 69.6369 37.615 69.6369 35.9246C69.6369 34.2341 68.1276 32.8638 66.2657 32.8638C64.4039 32.8638 62.8945 34.2341 62.8945 35.9246C62.8945 37.615 64.4039 38.9854 66.2657 38.9854Z" fill="#2696CA"/>
<g opacity="0.3">
<path d="M65.685 48.6432C69.2029 48.6432 72.0546 46.0536 72.0546 42.8592C72.0546 39.6648 69.2029 37.0752 65.685 37.0752C62.1672 37.0752 59.3154 39.6648 59.3154 42.8592C59.3154 46.0536 62.1672 48.6432 65.685 48.6432Z" fill="white"/>
<path d="M60.1184 41.1742C62.8365 41.1742 65.04 39.1727 65.04 36.7038C65.04 34.2349 62.8365 32.2334 60.1184 32.2334C57.4002 32.2334 55.1968 34.2349 55.1968 36.7038C55.1968 39.1727 57.4002 41.1742 60.1184 41.1742Z" fill="white"/>
<path d="M57.8625 46.4496C60.5806 46.4496 62.7841 44.4481 62.7841 41.9792C62.7841 39.5103 60.5806 37.5088 57.8625 37.5088C55.1444 37.5088 52.9409 39.5103 52.9409 41.9792C52.9409 44.4481 55.1444 46.4496 57.8625 46.4496Z" fill="white"/>
<path d="M53.7649 42.286C56.483 42.286 58.6865 40.2845 58.6865 37.8156C58.6865 35.3467 56.483 33.3452 53.7649 33.3452C51.0467 33.3452 48.8433 35.3467 48.8433 37.8156C48.8433 40.2845 51.0467 42.286 53.7649 42.286Z" fill="white"/>
<path d="M51.6867 48.4398C54.4049 48.4398 56.6083 46.4384 56.6083 43.9694C56.6083 41.5005 54.4049 39.499 51.6867 39.499C48.9686 39.499 46.7651 41.5005 46.7651 43.9694C46.7651 46.4384 48.9686 48.4398 51.6867 48.4398Z" fill="white"/>
<path d="M53.5842 51.7997C56.3023 51.7997 58.5058 49.7982 58.5058 47.3293C58.5058 44.8604 56.3023 42.8589 53.5842 42.8589C50.8661 42.8589 48.6626 44.8604 48.6626 47.3293C48.6626 49.7982 50.8661 51.7997 53.5842 51.7997Z" fill="white"/>
<path d="M58.6863 50.9583C62.4295 50.9583 65.4639 48.2026 65.4639 44.8031C65.4639 41.4037 62.4295 38.6479 58.6863 38.6479C54.9431 38.6479 51.9087 41.4037 51.9087 44.8031C51.9087 48.2026 54.9431 50.9583 58.6863 50.9583Z" fill="white"/>
<path d="M62.221 53.1791C65.9641 53.1791 68.9986 50.4233 68.9986 47.0239C68.9986 43.6244 65.9641 40.8687 62.221 40.8687C58.4778 40.8687 55.4434 43.6244 55.4434 47.0239C55.4434 50.4233 58.4778 53.1791 62.221 53.1791Z" fill="white"/>
<path d="M47.8321 43.1968C49.694 43.1968 51.2033 41.8264 51.2033 40.136C51.2033 38.4456 49.694 37.0752 47.8321 37.0752C45.9703 37.0752 44.4609 38.4456 44.4609 40.136C44.4609 41.8264 45.9703 43.1968 47.8321 43.1968Z" fill="white"/>
<path d="M49.7999 41.1743C51.6618 41.1743 53.1711 39.804 53.1711 38.1135C53.1711 36.4231 51.6618 35.0527 49.7999 35.0527C47.938 35.0527 46.4287 36.4231 46.4287 38.1135C46.4287 39.804 47.938 41.1743 49.7999 41.1743Z" fill="white"/>
<path d="M66.2657 38.9854C68.1276 38.9854 69.6369 37.615 69.6369 35.9246C69.6369 34.2341 68.1276 32.8638 66.2657 32.8638C64.4039 32.8638 62.8945 34.2341 62.8945 35.9246C62.8945 37.615 64.4039 38.9854 66.2657 38.9854Z" fill="white"/>
</g>
<path d="M22.2497 21.4834H19.4897V30.2306H22.2497V21.4834Z" fill="#263238"/>
<path d="M27.048 20.0576L14.3472 32.7584H39.7472L27.048 20.0576Z" fill="#263238"/>
<path d="M27.0478 21.1362L15.4238 32.7586H38.6702L27.0478 21.1362Z" fill="#2696CA"/>
<path opacity="0.1" d="M21.9712 30.7666V31.4434H32.1248V30.7666H21.9712Z" fill="black"/>
<path opacity="0.1" d="M27.1424 24.7183V24.0415H25.2944V24.7183H26.2176V25.3935H28.0656V24.7183H27.1424Z" fill="black"/>
<path d="M37.2895 32.0435H16.8047V66.5987H37.2895V32.0435Z" fill="#2696CA"/>
<path d="M37.6879 66.1633H16.4062V66.5985H37.6879V66.1633Z" fill="#2696CA"/>
<path d="M16.5294 39.5938V49.3697H16.2686V49.8865H16.8046V49.3697V39.5938H16.5294Z" fill="#2696CA"/>
<path d="M37.5648 39.5938V49.3697H37.8256V49.8865H37.2896V49.3697V39.5938H37.5648Z" fill="#2696CA"/>
<path d="M16.2529 33.2354H37.8417L37.5873 36.6626H16.5073L16.2529 33.2354Z" fill="#2696CA"/>
<path opacity="0.1" d="M37.2895 32.7583H16.8047V33.2351H37.2895V32.7583Z" fill="black"/>
<path opacity="0.1" d="M37.2895 36.6338H16.8047V37.1106H37.2895V36.6338Z" fill="black"/>
<path opacity="0.4" d="M27.048 26.4082C25.8916 26.4082 24.7827 26.8676 23.965 27.6852C23.1473 28.5029 22.688 29.6119 22.688 30.7682H31.4064C31.4064 29.6121 30.9473 28.5034 30.1299 27.6858C29.3126 26.8682 28.2041 26.4086 27.048 26.4082Z" fill="white"/>
<path opacity="0.3" d="M27.6657 27.4639C26.7897 27.4643 25.9497 27.8126 25.3304 28.4322C24.7112 29.0517 24.3633 29.8919 24.3633 30.7679H30.9681C30.9681 29.8919 30.6202 29.0517 30.0009 28.4322C29.3817 27.8126 28.5417 27.4643 27.6657 27.4639Z" fill="#2696CA"/>
<path opacity="0.1" d="M17.4832 33.9058H17.2368V35.9922H17.4832V33.9058Z" fill="black"/>
<path opacity="0.1" d="M18.6942 33.9058H18.4478V35.9922H18.6942V33.9058Z" fill="black"/>
<path opacity="0.1" d="M19.9056 33.9058H19.6592V35.9922H19.9056V33.9058Z" fill="black"/>
<path opacity="0.1" d="M21.117 33.9058H20.8706V35.9922H21.117V33.9058Z" fill="black"/>
<path opacity="0.1" d="M22.3265 33.9058H22.0801V35.9922H22.3265V33.9058Z" fill="black"/>
<path opacity="0.1" d="M23.5374 33.9058H23.291V35.9922H23.5374V33.9058Z" fill="black"/>
<path opacity="0.1" d="M24.7488 33.9058H24.5024V35.9922H24.7488V33.9058Z" fill="black"/>
<path opacity="0.1" d="M25.9598 33.9058H25.7134V35.9922H25.9598V33.9058Z" fill="black"/>
<path opacity="0.1" d="M27.1697 33.9058H26.9233V35.9922H27.1697V33.9058Z" fill="black"/>
<path opacity="0.1" d="M28.3807 33.9058H28.1343V35.9922H28.3807V33.9058Z" fill="black"/>
<path opacity="0.1" d="M29.5921 33.9058H29.3457V35.9922H29.5921V33.9058Z" fill="black"/>
<path opacity="0.1" d="M30.803 33.9058H30.5566V35.9922H30.803V33.9058Z" fill="black"/>
<path opacity="0.1" d="M32.0145 33.9058H31.7681V35.9922H32.0145V33.9058Z" fill="black"/>
<path opacity="0.1" d="M33.2239 33.9058H32.9775V35.9922H33.2239V33.9058Z" fill="black"/>
<path opacity="0.1" d="M34.4354 33.9058H34.189V35.9922H34.4354V33.9058Z" fill="black"/>
<path opacity="0.1" d="M35.6463 33.9058H35.3999V35.9922H35.6463V33.9058Z" fill="black"/>
<path opacity="0.1" d="M36.8577 33.9058H36.6113V35.9922H36.8577V33.9058Z" fill="black"/>
<path opacity="0.1" d="M17.7214 50.5615H17.4814V51.1231H17.7214V50.5615Z" fill="black"/>
<path opacity="0.1" d="M18.9026 50.5615H18.6626V51.1231H18.9026V50.5615Z" fill="black"/>
<path opacity="0.1" d="M20.0833 50.5615H19.8433V51.1231H20.0833V50.5615Z" fill="black"/>
<path opacity="0.1" d="M21.2639 50.5615H21.0239V51.1231H21.2639V50.5615Z" fill="black"/>
<path opacity="0.1" d="M22.4446 50.5615H22.2046V51.1231H22.4446V50.5615Z" fill="black"/>
<path opacity="0.1" d="M23.6257 50.5615H23.3857V51.1231H23.6257V50.5615Z" fill="black"/>
<path opacity="0.1" d="M24.8064 50.5615H24.5664V51.1231H24.8064V50.5615Z" fill="black"/>
<path opacity="0.1" d="M25.9871 50.5615H25.7471V51.1231H25.9871V50.5615Z" fill="black"/>
<path opacity="0.1" d="M27.1663 50.5615H26.9263V51.1231H27.1663V50.5615Z" fill="black"/>
<path opacity="0.1" d="M28.3469 50.5615H28.1069V51.1231H28.3469V50.5615Z" fill="black"/>
<path opacity="0.1" d="M29.5281 50.5615H29.2881V51.1231H29.5281V50.5615Z" fill="black"/>
<path opacity="0.1" d="M30.7087 50.5615H30.4688V51.1231H30.7087V50.5615Z" fill="black"/>
<path opacity="0.1" d="M31.8894 50.5615H31.6494V51.1231H31.8894V50.5615Z" fill="black"/>
<path opacity="0.1" d="M33.0706 50.5615H32.8306V51.1231H33.0706V50.5615Z" fill="black"/>
<path opacity="0.1" d="M34.2512 50.5615H34.0112V51.1231H34.2512V50.5615Z" fill="black"/>
<path opacity="0.1" d="M35.4304 50.5615H35.1904V51.1231H35.4304V50.5615Z" fill="black"/>
<path opacity="0.1" d="M36.6111 50.5615H36.3711V51.1231H36.6111V50.5615Z" fill="black"/>
<path opacity="0.4" d="M23.5454 49.3678V39.5918H18.8174V49.3678H23.5454Z" fill="white"/>
<path opacity="0.1" d="M18.7822 49.3697V49.8865H23.5438V49.3697H18.7822Z" fill="black"/>
<path opacity="0.4" d="M23.5454 44.7794V44.1826H18.8174V44.7794H23.5454Z" fill="white"/>
<path opacity="0.4" d="M23.1871 39.9502H19.1743V49.011H23.1871V39.9502Z" fill="white"/>
<path opacity="0.3" d="M22.8862 41.4609H19.7822V49.0113H22.8862V41.4609Z" fill="#2696CA"/>
<path opacity="0.4" d="M33.147 49.3698V39.5938H28.419V49.3698H33.147Z" fill="white"/>
<path opacity="0.1" d="M26.2432 49.3697V49.8865H35.3232V49.3697H26.2432Z" fill="black"/>
<path opacity="0.4" d="M33.147 44.7809V44.1841H28.419V44.7809H33.147Z" fill="white"/>
<path opacity="0.4" d="M32.7887 39.9502H28.7759V49.011H32.7887V39.9502Z" fill="white"/>
<path opacity="0.3" d="M32.4878 41.4609H29.3838V49.0113H32.4878V41.4609Z" fill="#2696CA"/>
<path opacity="0.4" d="M35.3232 49.3698V39.5938H33.7808V49.3698H35.3232Z" fill="white"/>
<path opacity="0.4" d="M35.3232 44.7794V44.1826H33.7808V44.7794H35.3232Z" fill="white"/>
<path opacity="0.4" d="M34.9649 39.9502H34.1377V49.011H34.9649V39.9502Z" fill="white"/>
<path opacity="0.4" d="M27.7842 49.3698V39.5938H26.2418V49.3698H27.7842Z" fill="white"/>
<path opacity="0.4" d="M27.7842 44.7794V44.1826H26.2418V44.7794H27.7842Z" fill="white"/>
<path opacity="0.4" d="M27.4273 39.9502H26.6001V49.011H27.4273V39.9502Z" fill="white"/>
<path opacity="0.4" d="M33.147 62.5311V52.7551H28.419V62.5311H33.147Z" fill="white"/>
<path opacity="0.1" d="M26.2432 62.5313V63.0481H35.3232V62.5313H26.2432Z" fill="black"/>
<path opacity="0.4" d="M33.147 57.9425V57.3457H28.419V57.9425H33.147Z" fill="white"/>
<path opacity="0.4" d="M32.7887 53.1135H28.7759V62.1743H32.7887V53.1135Z" fill="white"/>
<path opacity="0.3" d="M32.4878 54.624H29.3838V62.1744H32.4878V54.624Z" fill="#2696CA"/>
<path opacity="0.4" d="M35.3218 62.5328V52.7568H33.7794V62.5328H35.3218Z" fill="white"/>
<path opacity="0.4" d="M35.3218 57.944V57.3472H33.7794V57.944H35.3218Z" fill="white"/>
<path opacity="0.4" d="M34.9649 53.1135H34.1377V62.1743H34.9649V53.1135Z" fill="white"/>
<path opacity="0.4" d="M27.7842 62.5328V52.7568H26.2418V62.5328H27.7842Z" fill="white"/>
<path opacity="0.4" d="M27.7842 57.9425V57.3457H26.2418V57.9425H27.7842Z" fill="white"/>
<path opacity="0.4" d="M27.4273 53.1135H26.6001V62.1743H27.4273V53.1135Z" fill="white"/>
<path opacity="0.1" d="M25.2333 65.7281V64.8577H18.1533V65.7281H17.7021V66.5985H25.6845V65.7281H25.2333Z" fill="black"/>
<path opacity="0.4" d="M21.6945 52.7568C22.5211 52.7568 23.3139 53.0852 23.8984 53.6697C24.4829 54.2542 24.8113 55.047 24.8113 55.8736V64.8576H18.5713V55.8736C18.5713 55.4638 18.6521 55.058 18.8092 54.6794C18.9662 54.3008 19.1963 53.957 19.4864 53.6675C19.7765 53.378 20.1209 53.1485 20.4998 52.9923C20.8787 52.836 21.2846 52.756 21.6945 52.7568Z" fill="white"/>
<path opacity="0.5" d="M24.1935 56.1648H19.1919V64.8576H24.1935V56.1648Z" fill="#2696CA"/>
<path opacity="0.5" d="M21.6942 53.3633C21.444 53.3631 21.1962 53.4122 20.9651 53.5078C20.7339 53.6034 20.5238 53.7436 20.3468 53.9204C20.1698 54.0972 20.0294 54.3072 19.9337 54.5383C19.8379 54.7694 19.7886 55.0171 19.7886 55.2673H23.5982C23.5982 55.0172 23.5489 54.7697 23.4532 54.5387C23.3576 54.3076 23.2173 54.0978 23.0405 53.921C22.8637 53.7442 22.6538 53.6039 22.4228 53.5082C22.1918 53.4125 21.9442 53.3633 21.6942 53.3633Z" fill="#2696CA"/>
<path d="M23.9134 60.5104C23.9134 60.5737 23.8947 60.6356 23.8595 60.6882C23.8243 60.7408 23.7744 60.7818 23.7159 60.8061C23.6574 60.8303 23.5931 60.8366 23.531 60.8243C23.4689 60.8119 23.4119 60.7815 23.3672 60.7367C23.3224 60.692 23.2919 60.6349 23.2796 60.5729C23.2672 60.5108 23.2736 60.4464 23.2978 60.388C23.322 60.3295 23.363 60.2795 23.4157 60.2444C23.4683 60.2092 23.5301 60.1904 23.5934 60.1904C23.6783 60.1904 23.7597 60.2241 23.8197 60.2842C23.8797 60.3442 23.9134 60.4256 23.9134 60.5104Z" fill="#2696CA"/>
<path opacity="0.1" d="M20.9922 38.4399V39.1167H22.8402V38.4399H20.9922Z" fill="black"/>
<path opacity="0.1" d="M29.6655 37.5009V38.1777H31.5135V37.5009H29.6655Z" fill="black"/>
<path opacity="0.1" d="M34.243 64.5729V63.8977H32.395V64.5729H33.3182V65.2497H35.1662V64.5729H34.243Z" fill="black"/>
<path d="M61.4864 25.248H41.312V66.5984H61.4864V25.248Z" fill="#2696CA"/>
<path d="M44.1764 20.25C44.1573 20.2498 44.1384 20.2534 44.1208 20.2605C44.1031 20.2677 44.087 20.2782 44.0735 20.2916C44.06 20.305 44.0492 20.321 44.0419 20.3385C44.0345 20.3561 44.0308 20.375 44.0308 20.394V24.5828H44.3204V20.394C44.3204 20.3558 44.3052 20.3192 44.2782 20.2922C44.2512 20.2652 44.2146 20.25 44.1764 20.25Z" fill="#263238"/>
<path d="M58.5283 23.2339C58.4901 23.2339 58.4535 23.2491 58.4265 23.2761C58.3994 23.3031 58.3843 23.3397 58.3843 23.3779V24.5827H58.6739V23.3779C58.6739 23.3588 58.6701 23.34 58.6628 23.3224C58.6554 23.3048 58.6447 23.2889 58.6311 23.2755C58.6176 23.2621 58.6015 23.2515 58.5839 23.2444C58.5662 23.2373 58.5473 23.2337 58.5283 23.2339Z" fill="#263238"/>
<path d="M46.584 21.3428H46.2944V24.5828H46.584V21.3428Z" fill="#263238"/>
<path d="M48.6899 20.5394C49.1139 21.7042 48.8147 22.8834 48.0211 23.1714C47.2275 23.4594 46.2403 22.7506 45.8163 21.5842C45.3923 20.4178 45.6931 19.2418 46.4867 18.9538C47.2803 18.6658 48.2675 19.3746 48.6899 20.5394Z" fill="#263238"/>
<path d="M61.4868 46.5728L68.7828 51.4672V66.5984H61.4868V46.5728Z" fill="#2696CA"/>
<path opacity="0.1" d="M61.4868 46.5728L68.7828 51.4672V66.5984H61.4868V46.5728Z" fill="black"/>
<path opacity="0.1" d="M67.0497 62.2754V61.541H65.0449V62.2754H66.0481V63.0098H68.0513V62.2754H67.0497Z" fill="black"/>
<path d="M69.4676 52.2131L61.4868 46.8275V46.0083L69.4676 51.3955V52.2131Z" fill="#263238"/>
<path opacity="0.4" d="M67.52 59.3106V52.8594H62.5712V59.3106H67.52Z" fill="white"/>
<path opacity="0.4" d="M67.52 56.2818V55.8882H62.5712V56.2818H67.52Z" fill="white"/>
<path opacity="0.4" d="M67.3058 53.0962H62.7842V59.0754H67.3058V53.0962Z" fill="white"/>
<path opacity="0.3" d="M67.1251 54.093H63.1475V59.0754H67.1251V54.093Z" fill="#2696CA"/>
<path d="M61.4867 25.248H41.3123L41.0371 24.8096H61.7619L61.4867 25.248Z" fill="#2696CA"/>
<path opacity="0.2" d="M61.4867 25.248H41.3123L41.0371 24.8096H61.7619L61.4867 25.248Z" fill="black"/>
<path d="M61.8802 24.81H40.9186L40.6338 24.354H62.165L61.8802 24.81Z" fill="#263238"/>
<path opacity="0.2" d="M43.674 26.333H41.9556V30.4706H43.674V26.333Z" fill="black"/>
<path opacity="0.4" d="M43.4196 26.9458H42.21V29.861H43.4196V26.9458Z" fill="#2696CA"/>
<path opacity="0.2" d="M60.8434 26.333H59.125V30.4706H60.8434V26.333Z" fill="black"/>
<path opacity="0.4" d="M60.5875 26.9458H59.3779V29.861H60.5875V26.9458Z" fill="#2696CA"/>
<path opacity="0.2" d="M58.3843 26.333H55.6611V30.4706H58.3843V26.333Z" fill="black"/>
<path opacity="0.4" d="M57.9824 26.9458H56.064V29.861H57.9824V26.9458Z" fill="#2696CA"/>
<path opacity="0.2" d="M47.1377 26.333H44.4146V30.4706H47.1377V26.333Z" fill="black"/>
<path opacity="0.4" d="M46.7363 26.9458H44.8179V29.861H46.7363V26.9458Z" fill="#2696CA"/>
<path opacity="0.2" d="M54.8434 26.333H47.957V30.4706H54.8434V26.333Z" fill="black"/>
<path opacity="0.4" d="M53.8242 26.9458H48.9746V29.861H53.8242V26.9458Z" fill="#2696CA"/>
<path opacity="0.4" d="M50.522 45.6993V33.9985H45.3924V45.6993H50.522Z" fill="white"/>
<path opacity="0.1" d="M43.0322 45.6979V46.0083H52.8818V45.6979H43.0322Z" fill="black"/>
<path opacity="0.4" d="M50.522 40.2068V39.4932H45.3924V40.2068H50.522Z" fill="white"/>
<path opacity="0.4" d="M50.1329 34.4258H45.7793V45.2706H50.1329V34.4258Z" fill="white"/>
<path opacity="0.3" d="M49.8049 36.2339H46.4385V45.2707H49.8049V36.2339Z" fill="#2696CA"/>
<path opacity="0.4" d="M52.8804 45.6979V33.9971H51.2084V45.6979H52.8804Z" fill="white"/>
<path opacity="0.4" d="M52.8804 40.2048V39.4912H51.2084V40.2048H52.8804Z" fill="white"/>
<path opacity="0.4" d="M52.4932 34.4258H51.5972V45.2706H52.4932V34.4258Z" fill="white"/>
<path opacity="0.4" d="M44.7041 45.6993V33.9985H43.0321V45.6993H44.7041Z" fill="white"/>
<path opacity="0.4" d="M44.7041 40.2048V39.4912H43.0321V40.2048H44.7041Z" fill="white"/>
<path opacity="0.4" d="M44.3154 34.4258H43.4194V45.2706H44.3154V34.4258Z" fill="white"/>
<path opacity="0.4" d="M50.522 60.2675V48.5667H45.3924V60.2675H50.522Z" fill="white"/>
<path opacity="0.1" d="M43.0308 60.2675V60.5779H52.8804V60.2675H43.0308Z" fill="black"/>
<path opacity="0.4" d="M50.522 54.7746V54.061H45.3924V54.7746H50.522Z" fill="white"/>
<path opacity="0.4" d="M50.1329 48.9954H45.7793V59.8402H50.1329V48.9954Z" fill="white"/>
<path opacity="0.3" d="M49.8049 50.8035H46.4385V59.8403H49.8049V50.8035Z" fill="#2696CA"/>
<path opacity="0.4" d="M52.8818 60.2675V48.5667H51.2098V60.2675H52.8818Z" fill="white"/>
<path opacity="0.4" d="M52.8818 54.7746V54.061H51.2098V54.7746H52.8818Z" fill="white"/>
<path opacity="0.4" d="M52.4932 48.9954H51.5972V59.8402H52.4932V48.9954Z" fill="white"/>
<path opacity="0.4" d="M44.7041 60.2689V48.5681H43.0321V60.2689H44.7041Z" fill="white"/>
<path opacity="0.4" d="M44.7041 54.7746V54.061H43.0321V54.7746H44.7041Z" fill="white"/>
<path opacity="0.4" d="M44.3154 48.9954H43.4194V59.8402H44.3154V48.9954Z" fill="white"/>
<path opacity="0.4" d="M59.9712 45.6993V33.9985H54.8416V45.6993H59.9712Z" fill="white"/>
<path opacity="0.1" d="M54.8433 45.6994V46.0098H59.9729V45.6994H54.8433Z" fill="black"/>
<path opacity="0.4" d="M59.9712 40.2048V39.4912H54.8416V40.2048H59.9712Z" fill="white"/>
<path opacity="0.4" d="M59.5841 34.4258H55.2305V45.2706H59.5841V34.4258Z" fill="white"/>
<path opacity="0.3" d="M59.256 36.2339H55.8896V45.2707H59.256V36.2339Z" fill="#2696CA"/>
<path opacity="0.1" d="M46.0356 32.2354V31.501H44.0308V32.2354H45.034V32.9682H47.0372V32.2354H46.0356Z" fill="black"/>
<path opacity="0.1" d="M55.7314 47.834V47.0996H53.7266V47.834H54.7298V48.5684H56.733V47.834H55.7314Z" fill="black"/>
<path opacity="0.1" d="M51.4912 31.1328V31.8672H53.496V31.1328H51.4912Z" fill="black"/>
<path opacity="0.1" d="M43.7026 62.1313V62.8657H45.7074V62.1313H43.7026Z" fill="black"/>
<path opacity="0.1" d="M48.5171 64.2339V64.9683H50.5219V64.2339H48.5171Z" fill="black"/>
<path opacity="0.1" d="M62.3618 50.5793V51.3137H64.3666V50.5793H62.3618Z" fill="black"/>
<path opacity="0.1" d="M60.6048 65.1953V63.7921H60.3584V62.3889H54.2256V63.7921H53.9792V65.1953H53.688V66.5985H60.896V65.1953H60.6048Z" fill="black"/>
<path opacity="0.1" d="M60.3584 62.389V50.1938H54.224V62.389H60.3584Z" fill="#263238"/>
<path opacity="0.3" d="M59.9731 50.5811H54.6147V62.3875H59.9731V50.5811Z" fill="#263238"/>
<g opacity="0.6">
<path d="M57.1459 51.8401H55.5107V53.4753H57.1459V51.8401Z" fill="#2696CA"/>
<path d="M59.0756 51.8401H57.4404V53.4753H59.0756V51.8401Z" fill="#2696CA"/>
<path d="M57.1459 53.7776H55.5107V55.4128H57.1459V53.7776Z" fill="#2696CA"/>
<path d="M59.0756 53.7776H57.4404V55.4128H59.0756V53.7776Z" fill="#2696CA"/>
</g>
<path d="M59.194 57.341C59.3831 57.341 59.5364 57.1877 59.5364 56.9986C59.5364 56.8095 59.3831 56.6562 59.194 56.6562C59.0049 56.6562 58.8516 56.8095 58.8516 56.9986C58.8516 57.1877 59.0049 57.341 59.194 57.341Z" fill="#2696CA"/>
</svg>
