<svg width="10" height="18" viewBox="0 0 10 18" fill="none" xmlns="http://www.w3.org/2000/svg">
<path d="M5.76923 3.88734C6.61539 3.88734 7.30769 3.20308 7.30769 2.36676C7.30769 1.53045 6.61539 0.846191 5.76923 0.846191C4.92308 0.846191 4.23077 1.53045 4.23077 2.36676C4.23077 3.20308 4.92308 3.88734 5.76923 3.88734ZM2.92308 6.47231L0.769231 17.1923H2.38462L3.76923 11.1101L5.38462 12.6306V17.1923H6.92308V11.4902L5.30769 9.96963L5.76923 7.68877C6.76923 8.8292 8.30769 9.58948 10 9.58948V8.06891C8.53846 8.06891 7.30769 7.30862 6.69231 6.24422L5.92308 5.02777C5.61539 4.57159 5.15385 4.26748 4.61539 4.26748C4.38462 4.26748 4.23077 4.34351 4 4.34351L0 6.01614V9.58948H1.53846V7.00451L2.92308 6.47231Z" fill="white"/>
</svg>
